<?xml version="1.0" encoding="utf-8"?>
<!-- Generator: Adobe Illustrator 25.4.1, SVG Export Plug-In . SVG Version: 6.00 Build 0)  -->
<svg version="1.1" id="Capa_1" xmlns="http://www.w3.org/2000/svg" xmlns:xlink="http://www.w3.org/1999/xlink" x="0px" y="0px"
	 viewBox="0 0 1024 1024" style="enable-background:new 0 0 1024 1024;" xml:space="preserve">
<style type="text/css">
	.st0{fill:#15873F;}
</style>
<g>
	<path class="st0" d="M661,291.6c-46.9-11.5-96.9,19.3-108,66.5c-2.8,12.1,1,19.7,13.3,21.8c6.8,1.2,13.5,1.6,15.7,1.8
		c46.9,0.4,81-26.8,91.9-68.5C677.3,300.9,672.9,294.4,661,291.6z"/>
	<path class="st0" d="M566.3,456.4c0.8-8.7-0.2-18.5-3-30.4c-8.7-35.9-43.3-62.7-80.4-62.7c-4.4,0-9.1,0.4-13.3,1.2
		c-44.1,8.1-75.8,49.2-70.5,91.9c1.8,16.9,14.7,29.2,30.8,29.2c17.1,0,30.8-13.9,30.8-30.8v-8.1c1.6-13.5,9.7-21.4,22.4-21.4
		c0.4,0,0.8,0,1.2,0c6,0.2,11.3,2.4,14.7,6.2l0,0l0,0c3.6,4,5.2,9.5,4.8,15.9c-2.4,41.1,9.5,77.8,37.3,115.6
		c14.5,19.9,16.9,45.7,6.6,68.9c-10.3,23.2-30.8,38.5-55.2,41.1c-2,0.2-4,0.4-6.2,0.4c-20.5,0-42.9-9.9-58.4-25.6
		c-12.9-12.9-19.1-27.8-17.5-41.7v-0.4v-0.4v-0.6v-1c0-16.9-13.9-30.8-30.8-30.8c-14.5,0-30.6,12.9-30.6,31.2v3.6v0.2v0.2
		c0.2,9.3,1.4,16.5,2.6,23c11.5,59.2,70.1,102.9,139.6,103.6l0,0l0,0h0.4h0.4c0.6,0,1.2,0,1.8-0.2c0.4,0,0.6,0,1,0h0.4h0.4
		c0.6,0,1.2-0.2,1.8-0.2c4-0.4,10.1-0.8,16.1-2.2c42.3-9.3,77-39.9,92.7-81.8c16.1-42.7,9.7-89.9-17.1-125.9
		C571.8,500.5,564.5,479.6,566.3,456.4z M481.9,371.6c0.4,0,0.6,0,0.8,0c0.4,0,0.8,0,1,0C483.1,371.6,482.5,371.6,481.9,371.6z
		 M505.3,426c-0.6-0.6-1.2-1.4-2-2C504.1,424.6,504.7,425.4,505.3,426c0.6,0.6,1,1.2,1.4,1.8C506.3,427.2,505.7,426.6,505.3,426z
		 M422.1,653.6c-1-1-1.8-1.8-2.6-2.8c-1.6-1.8-3.2-3.8-4.8-5.8c1.4,2,3,3.8,4.8,5.8C420.3,651.8,421.3,652.6,422.1,653.6
		L422.1,653.6L422.1,653.6z M537.1,661.5c2.8-2.6,5.2-5.4,7.7-8.3C542.6,656,539.9,658.9,537.1,661.5z M555.1,428
		c0.6,2.6,1.2,5.2,1.6,7.9C556.3,433.2,555.7,430.6,555.1,428z"/>
</g>
</svg>
