<?xml version="1.0" encoding="utf-8"?>
<!-- Generator: Adobe Illustrator 25.4.1, SVG Export Plug-In . SVG Version: 6.00 Build 0)  -->
<svg version="1.1" id="Capa_1" xmlns="http://www.w3.org/2000/svg" xmlns:xlink="http://www.w3.org/1999/xlink" x="0px" y="0px"
	 viewBox="0 0 1150.5 1514.1" style="enable-background:new 0 0 1150.5 1514.1;" xml:space="preserve">
<style type="text/css">
	.st0{fill:#15873F;}
	.st1{fill:#343A40;}
</style>
<g>
	<path class="st0" d="M867.9,4.7C777.4-17.5,681.1,41.9,659.6,133c-5.5,23.2,2,37.9,25.8,42.1c13.1,2.3,26.1,3.3,30.4,3.6
		c90.4,0.7,156-51.6,176.9-131.9C899.2,22.6,890.7,10.2,867.9,4.7z"/>
	<path class="st0" d="M685.2,322.6c1.4-16.6-0.5-35.8-5.9-58.8c-16.6-69-83.3-120.9-155.1-120.9c-8.7,0-17.3,0.8-25.7,2.3
		c-85.1,15.5-146.1,94.9-135.9,177.1c3.6,32.7,28.5,56.4,59.5,56.4c32.9,0,59.6-26.7,59.6-59.6v-15.4c3.1-26.2,18.8-41.3,43.2-41.3
		c0.8,0,1.6,0,2.3,0c11.8,0.5,21.8,4.8,28.3,12.1l0.1,0.1l0.1,0.1c7,7.6,10.2,18.2,9.5,30.6c-4.5,79.1,18.3,149.9,71.7,222.7
		c27.9,38.3,32.7,88,12.9,132.8c-19.9,44.7-59.6,74.3-106.4,79.2c-3.9,0.4-7.9,0.6-12,0.6c-39.5,0-82.6-18.9-112.5-49.4
		c-24.7-25-36.7-53.5-33.7-80.2l0.1-0.9v-0.9v-1v-2c0-32.7-26.7-59.3-59.6-59.3c-27.9,0-58.9,24.7-58.9,60.2v6.9v0.2l0,0.2
		c0.3,17.8,2.7,31.8,5.2,44.3c22,114.3,135.2,198.3,269,199.7l0.1,0h0.1h0.7h0.7c1.3,0,2.5-0.1,3.5-0.2c0.7-0.1,1.2-0.1,1.8-0.1h0.7
		l0.7-0.1c1.1-0.1,2.3-0.2,3.6-0.3c7.8-0.6,19.5-1.5,31.2-4.3c81.6-17.8,148.4-76.8,178.7-157.6c31-82.5,18.7-173.2-32.9-242.5
		C695.6,407.4,681.9,367.1,685.2,322.6z M522.5,159c0.6,0,1.1,0,1.7,0c0.7,0,1.4,0,2.1,0C525,159,523.7,159,522.5,159z M567.5,263.9
		c-1.2-1.3-2.4-2.6-3.8-3.8C565.1,261.2,566.3,262.5,567.5,263.9c1,1.1,1.9,2.2,2.8,3.4C569.4,266.1,568.5,264.9,567.5,263.9z
		 M407.2,702.6c-1.8-1.8-3.5-3.6-5.1-5.4c-3.3-3.6-6.3-7.3-9.2-11.1c2.8,3.8,5.9,7.4,9.2,11.1C403.8,699,405.5,700.8,407.2,702.6
		C407.3,702.6,407.3,702.6,407.2,702.6C407.3,702.6,407.3,702.6,407.2,702.6z M629,717.6c5.3-5,10.2-10.3,14.8-16.1
		C639.3,707.3,634.3,712.6,629,717.6z M663.5,267.5c1.2,5.2,2.3,10.2,3.1,15.1C665.8,277.7,664.7,272.7,663.5,267.5z"/>
</g>
<g>
	<path class="st1" d="M154.1,1005.5c15.1,0,29.4,2.9,42.9,8.7c13.5,5.8,25.3,13.7,35.4,23.8c10.1,10.1,18.1,21.9,24,35.4
		c5.9,13.5,8.9,28,8.9,43.4c0,15.1-2.9,29.5-8.7,43.2c-5.8,13.6-13.7,25.5-23.8,35.6c-10.1,10.1-21.9,18.1-35.4,24
		c-13.5,5.9-28,8.9-43.4,8.9H92.7v88.5H25.9v-311.4H154.1z M146.5,1166.1c6.8,0,13.2-1.3,19.1-4c5.9-2.7,11.1-6.2,15.6-10.7
		c4.4-4.4,7.9-9.6,10.5-15.6c2.5-5.9,3.8-12.3,3.8-19.1c0-6.5-1.3-12.8-3.8-18.7c-2.5-5.9-6-11.1-10.5-15.6
		c-4.4-4.4-9.6-8-15.6-10.7c-5.9-2.7-12.3-4-19.1-4H92.7v98.3H146.5z"/>
	<path class="st1" d="M506.5,1254.6v62.3H309.4v-311.4h194.4v62.3H375.2v62.3h96.5v62.3h-96.5v62.3H506.5z"/>
	<path class="st1" d="M733.4,1316.9l-63.2-96.1h-48.9v96.1h-66.7v-311.4h133.9c14.5,0,28.3,2.8,41.4,8.5c13,5.6,24.5,13.3,34.3,22.9
		c9.8,9.6,17.6,21,23.4,34c5.8,13.1,8.7,27.1,8.7,42.3c0,20.5-5.2,39.1-15.6,55.8c-10.4,16.8-24,29.7-40.9,38.9l71.2,109H733.4z
		 M681.3,1158.5c6.2,0,12.1-1.2,17.6-3.6c5.5-2.4,10.2-5.6,14.2-9.8c4-4.2,7.2-9,9.6-14.5c2.4-5.5,3.6-11.3,3.6-17.6
		c0-6.2-1.2-12.1-3.6-17.6c-2.4-5.5-5.6-10.3-9.6-14.5c-4-4.1-8.8-7.4-14.2-9.8c-5.5-2.4-11.3-3.6-17.6-3.6h-60.1v90.8H681.3z"/>
	<path class="st1" d="M1046.6,1264.4H930l-16.9,52.5H841l106.8-311.4h81.4l106.3,311.4h-71.6L1046.6,1264.4z M1026.1,1202.1
		l-37.8-115.7l-37.8,115.7H1026.1z"/>
</g>
<g>
	<path class="st1" d="M83.4,1400.5c9.7,0,18.7,3.5,26.4,10.2c1.1,1.1,2.2,1.6,3.3,1.5c1.1-0.1,2-0.6,2.7-1.5l7-7.1
		c1-1,1.5-2.1,1.5-3.2c0-1.2-0.6-2.3-1.7-3.3c-11.5-10-24.8-15.1-39.4-15.1c-16.2,0-30.2,5.8-41.6,17.2
		c-11.4,11.4-17.2,25.4-17.2,41.6c0,16.2,5.8,30.2,17.2,41.5c11.4,11.3,25.4,17,41.6,17c15.5,0,28.8-5.3,39.6-15.8
		c0.9-0.9,1.4-1.9,1.5-3.1c0.1-1.2-0.4-2.3-1.3-3.3l-7.4-7.2c-1-0.8-3-1.9-5.6,0.1c-8.8,6.8-17.7,10.2-26.4,10.2
		c-10.8,0-20-3.9-27.4-11.7c-7.4-7.8-11.2-17.2-11.2-28c0-10.8,3.7-20.2,11.1-28.1C63.5,1404.5,72.7,1400.5,83.4,1400.5z"/>
	<path class="st1" d="M193,1381.9c-16.2,0-30.2,5.8-41.5,17.2c-11.3,11.4-17,25.4-17,41.6c0,16.2,5.7,30.2,17,41.4
		c11.3,11.3,25.2,17,41.4,17c16.2,0,30.2-5.7,41.5-17c11.3-11.3,17.1-25.2,17.1-41.4c0-16.2-5.8-30.2-17.1-41.6
		C223.2,1387.7,209.2,1381.9,193,1381.9z M232.8,1440.7c0,10.9-3.9,20.3-11.7,28c-7.8,7.7-17.2,11.6-28.1,11.6s-20.3-3.9-28-11.6
		c-7.7-7.7-11.6-17.2-11.6-28c0-10.9,3.9-20.4,11.7-28.2c7.8-7.8,17.2-11.8,27.9-11.8c10.9,0,20.3,4,28.1,11.8
		C228.9,1420.3,232.8,1429.8,232.8,1440.7z"/>
	<path class="st1" d="M362.1,1383.5h-10.2c-1.2,0-2.3,0.5-3.2,1.3c-0.9,0.9-1.3,2-1.3,3.2v71.4l-66.5-76.9l-0.4-0.5h-4.6
		c-1.2,0-2.3,0.5-3.2,1.3c-0.9,0.9-1.3,1.9-1.3,3v106.9c0,1.1,0.4,2.1,1.3,3c0.9,0.9,2,1.4,3.2,1.4h10c1.2,0,2.3-0.5,3.2-1.3
		c0.9-0.8,1.3-1.9,1.3-3.2v-73.5l66.9,79.6h4.8c1.2,0,2.3-0.5,3.2-1.3c0.9-0.9,1.3-1.9,1.3-3v-106.9c0-1.1-0.5-2.2-1.4-3.1
		C364.3,1383.9,363.2,1383.5,362.1,1383.5z"/>
	<path class="st1" d="M451.4,1445.5c-6-5.3-14.6-10.3-25.7-14.8c-6.7-2.8-11.7-5.7-14.8-8.6c-3-2.8-4.5-6.1-4.5-10
		c0-3.2,1.3-6.1,4-8.8c2.7-2.7,6.9-4,12.5-4c4.7,0,11.7,2.6,20.7,7.7c1.4,0.9,2.8,1.1,4,0.8c1.4-0.3,2.5-1.3,3.5-2.9l2-3
		c0.9-1.4,1.6-2.4,2-3c1-1.5,1.3-2.9,1.1-4.2c-0.3-1.3-1.1-2.3-2.4-3.2c-9.1-6.4-19.3-9.6-30.2-9.6c-6.2,0-11.8,1-16.6,2.9
		c-4.9,1.9-8.7,4.5-11.4,7.7c-2.7,3.1-4.7,6.4-6.1,9.9c-1.4,3.4-2.1,6.9-2.1,10.4c0,8.8,2.7,16,7.9,21.3c5.1,5.1,12.5,9.8,21.9,13.7
		c8.1,3.3,14,6.6,17.8,9.9c3.6,3.1,5.3,6.7,5.3,10.8c0,3.7-1.4,6.8-4.4,9.4c-3,2.6-7.1,3.9-12.1,3.9c-7.8,0-16-3.6-24.5-10.6
		c-1.2-1-2.4-1.4-3.7-1.2c-1.4,0.2-2.7,1.1-3.8,2.7c-0.6,0.7-1.3,1.8-2.3,3.5c-0.9,1.5-1.5,2.6-2,3.3c-1.4,2.5-0.9,4.9,1.3,6.9
		c1.5,1.4,3.5,3,5.8,4.6c2.4,1.7,6.3,3.5,11.9,5.4c5.6,2,11.4,2.9,17.4,2.9c10.5,0,19.3-3.1,26.3-9.1c7-6.1,10.6-13.6,10.6-22.4
		C460.7,1458.5,457.6,1451,451.4,1445.5z"/>
	<path class="st1" d="M563.1,1383.5h-10.6c-1.2,0-2.3,0.5-3.2,1.3c-0.9,0.9-1.3,2-1.3,3.2v65.9c0,7.6-2.3,14-6.9,19
		c-4.6,5-10.7,7.5-18.3,7.5c-7.6,0-13.5-2.5-18-7.5c-4.5-5-6.8-11.5-6.8-19.3v-65.6c0-1.2-0.4-2.3-1.3-3.2c-0.9-0.8-1.9-1.3-3.2-1.3
		h-10.6c-1.1,0-2.2,0.5-3.1,1.4c-0.9,0.9-1.4,2-1.4,3.1v66.7c0,12.5,4.3,23.2,12.6,31.7c8.4,8.5,19.1,12.8,31.8,12.8
		c12.8,0,23.6-4.3,32.1-12.8c8.4-8.5,12.7-19.2,12.7-31.7v-66.7c0-1.1-0.5-2.2-1.4-3.1C565.3,1383.9,564.3,1383.5,563.1,1383.5z"/>
	<path class="st1" d="M655.1,1479.9h-41.6v-91.9c0-1.1-0.4-2.1-1.3-3c-0.9-0.9-2-1.4-3.2-1.4h-10.5c-1.2,0-2.3,0.5-3.2,1.3
		c-0.9,0.9-1.3,2-1.3,3.2v105.1c0,1.2,0.5,2.3,1.3,3.2c0.8,0.9,1.9,1.3,3.2,1.3h56.5c1.2,0,2.3-0.5,3.2-1.3c0.9-0.8,1.3-1.9,1.3-3.2
		v-8.7c0-1.2-0.4-2.3-1.3-3.2C657.4,1480.3,656.3,1479.9,655.1,1479.9z"/>
	<path class="st1" d="M725.7,1383.5h-68.3c-1.2,0-2.3,0.5-3.2,1.3c-0.9,0.9-1.3,2-1.3,3.2v8.9c0,1.2,0.5,2.3,1.3,3.2
		c0.8,0.9,1.9,1.3,3.2,1.3h24.4v91.8c0,1.1,0.4,2.1,1.3,3c0.9,0.9,2,1.4,3.2,1.4h10.5c1.2,0,2.4-0.5,3.2-1.4c0.8-0.9,1.3-1.9,1.3-3
		v-91.8h24.4c1.2,0,2.3-0.5,3.2-1.3c0.9-0.8,1.3-1.9,1.3-3.2v-8.9c0-1.2-0.4-2.3-1.3-3.2C728,1383.9,726.9,1383.5,725.7,1383.5z"/>
	<path class="st1" d="M793.2,1381.9c-16.2,0-30.2,5.8-41.4,17.2c-11.3,11.4-17,25.4-17,41.6c0,16.2,5.7,30.2,17,41.4
		c11.3,11.3,25.2,17,41.4,17c16.2,0,30.2-5.7,41.5-17c11.4-11.3,17.1-25.2,17.1-41.4c0-16.2-5.8-30.2-17.1-41.6
		C823.4,1387.7,809.4,1381.9,793.2,1381.9z M833,1440.7c0,10.9-3.9,20.3-11.7,28c-7.8,7.7-17.2,11.6-28.1,11.6
		c-10.9,0-20.3-3.9-28-11.6c-7.7-7.7-11.6-17.2-11.6-28c0-10.9,3.9-20.4,11.7-28.2c7.8-7.8,17.2-11.8,27.9-11.8
		c10.9,0,20.3,4,28.1,11.8C829.1,1420.3,833,1429.8,833,1440.7z"/>
	<path class="st1" d="M948.6,1439.2c4.5-5.9,6.7-12.8,6.7-20.2c0-9.8-3.6-18.2-10.6-25.1c-7-6.9-15.6-10.3-25.5-10.3h-43.2
		c-1.2,0-2.3,0.5-3.2,1.3c-0.9,0.9-1.3,1.9-1.3,3.2v105.1c0,1.2,0.5,2.3,1.3,3.2c0.8,0.9,1.9,1.3,3.2,1.3h10.3
		c1.1,0,2.2-0.5,3.1-1.4c0.9-0.9,1.4-2,1.4-3.1v-39h21.6l20.7,41.2c0.4,0.9,1.4,2.3,3.9,2.3h12.4c1.8,0,3.2-0.8,4-2.2
		c0.8-1.5,0.8-3.1-0.1-4.5l-21-38.9C939.1,1448.9,944.5,1444.7,948.6,1439.2z M891.2,1401.8H918c4.8,0,8.9,1.7,12.6,5.2
		c3.6,3.5,5.4,7.5,5.4,12.2c0,5-1.8,9.2-5.4,12.9c-3.6,3.6-7.7,5.4-12.5,5.4h-26.8V1401.8z"/>
	<path class="st1" d="M1045.2,1383.5h-63.5c-1.2,0-2.3,0.4-3.2,1.3c-0.8,0.9-1.3,1.9-1.3,3.2v105.1c0,1.2,0.5,2.3,1.3,3.2
		c0.8,0.9,1.9,1.3,3.2,1.3h63.5c1.2,0,2.3-0.5,3.2-1.3c0.8-0.8,1.3-1.9,1.3-3.2v-8.7c0-1.2-0.4-2.3-1.3-3.2
		c-0.9-0.8-1.9-1.3-3.2-1.3h-48.7v-31.2h40.9c1.2,0,2.3-0.5,3.2-1.3c0.8-0.8,1.3-1.9,1.3-3.2v-8.9c0-1.1-0.5-2.2-1.4-3.1
		s-2-1.4-3.1-1.4h-40.9v-29.5h48.7c1.2,0,2.3-0.5,3.2-1.3c0.8-0.9,1.3-1.9,1.3-3.2v-8.9c0-1.2-0.4-2.3-1.3-3.2
		C1047.5,1383.9,1046.4,1383.5,1045.2,1383.5z"/>
	<path class="st1" d="M1127.7,1445.5c-6-5.3-14.6-10.3-25.7-14.8c-6.7-2.8-11.7-5.7-14.8-8.6c-3-2.8-4.5-6.1-4.5-10
		c0-3.2,1.3-6.1,4-8.8c2.7-2.7,6.9-4,12.5-4c4.7,0,11.7,2.6,20.7,7.7c1.4,0.9,2.8,1.1,4,0.8c1.4-0.3,2.5-1.3,3.5-2.9l2-3.1
		c0.9-1.3,1.5-2.3,1.9-2.9c1-1.5,1.3-2.9,1.1-4.2c-0.3-1.3-1.1-2.3-2.4-3.2c-9.1-6.4-19.3-9.6-30.2-9.6c-6.2,0-11.8,1-16.6,2.9
		c-4.9,1.9-8.7,4.5-11.4,7.7c-2.7,3.1-4.7,6.4-6.1,9.9c-1.4,3.4-2.1,6.9-2.1,10.4c0,8.8,2.7,16,7.9,21.3c5.1,5.1,12.5,9.8,21.9,13.7
		c8.1,3.3,14,6.6,17.8,9.9c3.6,3.1,5.3,6.7,5.3,10.8c0,3.7-1.4,6.8-4.4,9.4c-3,2.6-7,3.9-12.1,3.9c-7.8,0-16-3.6-24.5-10.6
		c-1.2-1-2.4-1.4-3.7-1.2c-1.4,0.2-2.7,1.1-3.8,2.7c-0.6,0.7-1.3,1.8-2.3,3.5c-0.9,1.5-1.5,2.6-2,3.3c-1.4,2.5-0.9,4.9,1.3,6.9
		c1.5,1.4,3.5,3,5.8,4.6c2.4,1.7,6.3,3.5,11.9,5.4c5.6,2,11.4,2.9,17.4,2.9c10.5,0,19.3-3.1,26.3-9.1c7-6.1,10.6-13.6,10.6-22.4
		C1137,1458.5,1133.9,1451,1127.7,1445.5z"/>
</g>
</svg>
